<svg width="119" height="36" viewBox="0 0 119 36" fill="none" xmlns="http://www.w3.org/2000/svg">
<path d="M35.7699 28.5H40.0753V21.8977H43.6946C48.3778 21.8977 51.1023 19.1037 51.1023 15.0369C51.1023 10.9901 48.4276 8.13636 43.804 8.13636H35.7699V28.5ZM40.0753 18.4474V11.6562H42.9787C45.4645 11.6562 46.6676 13.0085 46.6676 15.0369C46.6676 17.0554 45.4645 18.4474 42.9986 18.4474H40.0753ZM57.7642 28.7884C60.0213 28.7884 61.483 27.804 62.2287 26.3821H62.348V28.5H66.3651V18.1989C66.3651 14.5597 63.2827 13.0284 59.8821 13.0284C56.223 13.0284 53.8168 14.7784 53.2301 17.5625L57.1477 17.8807C57.4361 16.8665 58.3409 16.1207 59.8622 16.1207C61.304 16.1207 62.1293 16.8466 62.1293 18.0994V18.1591C62.1293 19.1435 61.0852 19.2727 58.4304 19.5312C55.4077 19.8097 52.6932 20.8239 52.6932 24.2344C52.6932 27.2571 54.8509 28.7884 57.7642 28.7884ZM58.9773 25.8651C57.6747 25.8651 56.7401 25.2585 56.7401 24.0952C56.7401 22.902 57.7244 22.3153 59.2159 22.1065C60.1406 21.9773 61.652 21.7585 62.1591 21.4205V23.0412C62.1591 24.642 60.8366 25.8651 58.9773 25.8651ZM76.532 34.5455C80.897 34.5455 83.9993 32.5568 83.9993 28.6491V13.2273H79.7933V15.7926H79.6342C79.0675 14.5497 77.8246 13.0284 75.2692 13.0284C71.9183 13.0284 69.0845 15.6335 69.0845 20.8338C69.0845 25.9148 71.8388 28.2812 75.2791 28.2812C77.7152 28.2812 79.0774 27.0582 79.6342 25.7955H79.8132V28.5895C79.8132 30.6875 78.4709 31.5028 76.6314 31.5028C74.7621 31.5028 73.8175 30.6875 73.4695 29.7628L69.5518 30.2898C70.0589 32.696 72.4155 34.5455 76.532 34.5455ZM76.6214 25.0994C74.5433 25.0994 73.4098 23.4489 73.4098 20.8139C73.4098 18.2188 74.5234 16.3991 76.6214 16.3991C78.6797 16.3991 79.8331 18.1392 79.8331 20.8139C79.8331 23.5085 78.6598 25.0994 76.6214 25.0994ZM94.3303 28.7983C98.1087 28.7983 100.654 26.9588 101.251 24.125L97.3331 23.8665C96.9055 25.0298 95.8118 25.6364 94.3999 25.6364C92.282 25.6364 90.9396 24.2344 90.9396 21.9574V21.9474H101.34V20.7841C101.34 15.5938 98.1982 13.0284 94.1612 13.0284C89.6669 13.0284 86.7536 16.2202 86.7536 20.9332C86.7536 25.7756 89.6271 28.7983 94.3303 28.7983ZM90.9396 19.3224C91.0291 17.5824 92.3516 16.1903 94.2308 16.1903C96.0703 16.1903 97.343 17.5028 97.353 19.3224H90.9396ZM116.812 17.5824C116.434 14.7685 114.167 13.0284 110.309 13.0284C106.401 13.0284 103.826 14.8381 103.836 17.7812C103.826 20.0682 105.268 21.5497 108.251 22.1463L110.896 22.6733C112.228 22.9418 112.835 23.429 112.854 24.1946C112.835 25.0994 111.85 25.7457 110.369 25.7457C108.857 25.7457 107.853 25.0994 107.594 23.8565L103.428 24.0753C103.826 26.9986 106.312 28.7983 110.359 28.7983C114.316 28.7983 117.15 26.7798 117.16 23.767C117.15 21.5597 115.708 20.2372 112.745 19.6307L109.981 19.0739C108.559 18.7656 108.032 18.2784 108.042 17.5426C108.032 16.6278 109.066 16.0312 110.379 16.0312C111.85 16.0312 112.725 16.8366 112.934 17.821L116.812 17.5824Z" fill="white"/>
<path d="M4.31348 25.9H25.25V3.5H4.2557C2.32228 3.50642 0.756356 5.08725 0.75 7.03908V27.6646H0.750578C0.750578 27.6733 0.75 27.6821 0.75 27.6908C0.75 29.7558 2.35521 31.5 4.2557 31.5H25.25V29.6333H4.2557C3.38895 29.6333 2.59906 28.7076 2.59906 27.6908C2.59906 26.7202 3.38433 25.9 4.31348 25.9ZM6.29717 5.38592H11.8443V15.4671L9.04764 12.9885L6.29717 15.4525V5.38592ZM2.59906 7.05367C2.59617 6.12617 3.33695 5.37192 4.2557 5.36667H4.44811H6.29717H4.44811V17.9667H6.27637L9.05458 15.4782L11.8617 17.9667H13.6934V5.36667H23.4009V24.0333H6.30179H4.45274H4.31348C3.71196 24.0333 3.12141 24.192 2.59963 24.493V7.05367H2.59906Z" fill="#FFCA42"/>
</svg>
